# xmcd
#
# Track frame offsets:
#	150
#	1092
#	48226
#	63394
#	143540
#	191826
#	225935
#	256956
#	285718
#	300388
#	318637
#
# Disc length: 4307 seconds
#
# Revision: 1
# Processed by: cddbd v1.5.2PL0 Copyright (c) Steve Scherf et al.
# Submitted via: audiograbber 1.83.01
#
DISCID=8a10d10b
DTITLE=Grateful Dead - 72-03-21 Academy of Music, New York NY
DYEAR=1900
DGENRE=
TTITLE0=Intro
TTITLE1=Truckin'
TTITLE2=Drums
TTITLE3=The Other One
TTITLE4=Wharf Rat
TTITLE5=Sugar Magnolia
TTITLE6=The Stranger
TTITLE7=Ramble On Rose
TTITLE8=Me and My Uncle
TTITLE9=Big Railroad Road
TTITLE10=Dead Air
EXTD=
EXTT0=
EXTT1=
EXTT2=
EXTT3=
EXTT4=
EXTT5=
EXTT6=
EXTT7=
EXTT8=
EXTT9=
EXTT10=
PLAYORDER=
